<svg xmlns="http://www.w3.org/2000/svg" viewBox="0 0 128 128">
  <defs>
    <radialGradient id="bg" cx="50%" cy="45%" r="58%"><stop offset="0" stop-color="#312c45"/><stop offset=".65" stop-color="#12101b"/><stop offset="1" stop-color="#050407"/></radialGradient>
    <linearGradient id="fur" x1="24" y1="14" x2="100" y2="112"><stop offset="0" stop-color="#ead7ff"/><stop offset=".48" stop-color="#b98bd8"/><stop offset="1" stop-color="#403453"/></linearGradient>
    <filter id="s" x="-25%" y="-25%" width="150%" height="150%"><feDropShadow dx="0" dy="2" stdDeviation="2.2" flood-color="#000" flood-opacity=".6"/></filter>
  </defs>
  <rect width="128" height="128" rx="22" fill="url(#bg)"/>
  <circle cx="64" cy="64" r="47" fill="none" stroke="#d7bd69" stroke-opacity=".42" stroke-width="3"/>
  <path fill="url(#fur)" filter="url(#s)" d="M24 80c14-30 43-45 79-40 7 16 2 33-15 45-23 16-49 14-64-5Z"/>
  <path d="M53 55h.1M68 50h.1M82 60h.1M45 70h.1M70 74h.1" stroke="#07100f" stroke-width="7" stroke-linecap="round" opacity=".45"/>
  <path d="M81 40c12-11 25-13 39-8-9 5-17 11-24 20" fill="none" stroke="#b98bd8" stroke-width="6" stroke-linecap="round"/>
</svg>
