<svg xmlns="http://www.w3.org/2000/svg" viewBox="0 0 128 128">
  <defs>
    <radialGradient id="bg" cx="50%" cy="45%" r="58%">
      <stop offset="0" stop-color="#343424"/>
      <stop offset="0.62" stop-color="#12170e"/>
      <stop offset="1" stop-color="#050704"/>
    </radialGradient>
    <linearGradient id="steel" x1="40" y1="8" x2="85" y2="118">
      <stop offset="0" stop-color="#fff1bd"/>
      <stop offset="0.5" stop-color="#d7bd69"/>
      <stop offset="1" stop-color="#52615a"/>
    </linearGradient>
    <filter id="soft" x="-25%" y="-25%" width="150%" height="150%">
      <feDropShadow dx="0" dy="2" stdDeviation="2.2" flood-color="#000" flood-opacity="0.6"/>
    </filter>
  </defs>
  <rect width="128" height="128" rx="22" fill="url(#bg)"/>
  <circle cx="64" cy="64" r="47" fill="none" stroke="#d7bd69" stroke-opacity="0.46" stroke-width="3"/>
  <path d="M60 12h8l10 20-9 51 21-22 8 8-25 25 15 15-8 8-16-16-16 16-8-8 15-15-25-25 8-8 21 22-9-51 10-20Z" fill="url(#steel)" filter="url(#soft)"/>
  <path d="M64 37 59 71h10l-5-34Z" fill="#11140e" opacity="0.42"/>
  <path d="M43 110h42" fill="none" stroke="#f0d98a" stroke-opacity="0.46" stroke-width="5" stroke-linecap="round"/>
</svg>
